W<mxfile host="app.diagrams.net" modified="2024-02-19T20:13:53.737Z" agent="Mozilla/5.0 (Macintosh; Intel Mac OS X 10_15_7) AppleWebKit/537.36 (KHTML, like Gecko) Chrome/121.0.0.0 Safari/537.36" etag="nfidOlIqdBMvp-738u-r" version="23.1.5" type="github">
  <diagram name="Page-1" id="03018318-947c-dd8e-b7a3-06fadd420f32">
    <mxGraphModel dx="1590" dy="818" grid="1" gridSize="10" guides="1" tooltips="1" connect="1" arrows="1" fold="1" page="1" pageScale="1" pageWidth="1100" pageHeight="850" background="none" math="0" shadow="0">
      <root>
        <mxCell id="0" />
        <mxCell id="1" parent="0" />
        <mxCell id="677b7b8949515195-1" value="" style="whiteSpace=wrap;html=1;rounded=0;shadow=0;labelBackgroundColor=none;strokeColor=#000000;strokeWidth=1;fillColor=none;fontFamily=Verdana;fontSize=12;fontColor=#000000;align=center;comic=1;" parent="1" vertex="1">
          <mxGeometry x="20" y="20" width="1060" height="810" as="geometry" />
        </mxCell>
        <mxCell id="677b7b8949515195-2" value="LOGO" style="whiteSpace=wrap;html=1;rounded=0;shadow=0;labelBackgroundColor=none;strokeWidth=1;fontFamily=Verdana;fontSize=28;align=center;comic=1;" parent="1" vertex="1">
          <mxGeometry x="40" y="60" width="190" height="50" as="geometry" />
        </mxCell>
        <mxCell id="677b7b8949515195-3" value="Search" style="strokeWidth=1;shadow=0;dashed=0;align=center;html=1;shape=mxgraph.mockup.forms.searchBox;strokeColor=#999999;mainText=;strokeColor2=#008cff;fontColor=#666666;fontSize=17;align=left;spacingLeft=3;rounded=0;labelBackgroundColor=none;comic=1;" parent="1" vertex="1">
          <mxGeometry x="840" y="95" width="220" height="30" as="geometry" />
        </mxCell>
        <mxCell id="677b7b8949515195-4" value="Topic 1" style="text;html=1;points=[];align=left;verticalAlign=top;spacingTop=-4;fontSize=14;fontFamily=Verdana" parent="1" vertex="1">
          <mxGeometry x="780" y="40" width="60" height="20" as="geometry" />
        </mxCell>
        <mxCell id="677b7b8949515195-5" value="Topic 2" style="text;html=1;points=[];align=left;verticalAlign=top;spacingTop=-4;fontSize=14;fontFamily=Verdana" parent="1" vertex="1">
          <mxGeometry x="860" y="40" width="60" height="20" as="geometry" />
        </mxCell>
        <mxCell id="677b7b8949515195-6" value="Topic 3" style="text;html=1;points=[];align=left;verticalAlign=top;spacingTop=-4;fontSize=14;fontFamily=Verdana" parent="1" vertex="1">
          <mxGeometry x="930" y="40" width="60" height="20" as="geometry" />
        </mxCell>
        <mxCell id="677b7b8949515195-7" value="Topic 4" style="text;html=1;points=[];align=left;verticalAlign=top;spacingTop=-4;fontSize=14;fontFamily=Verdana" parent="1" vertex="1">
          <mxGeometry x="1000" y="40" width="60" height="20" as="geometry" />
        </mxCell>
        <mxCell id="677b7b8949515195-8" value="" style="whiteSpace=wrap;html=1;rounded=0;shadow=0;labelBackgroundColor=none;strokeWidth=1;fillColor=none;fontFamily=Verdana;fontSize=12;align=center;comic=1;" parent="1" vertex="1">
          <mxGeometry x="30" y="230" width="200" height="590" as="geometry" />
        </mxCell>
        <mxCell id="677b7b8949515195-9" value="" style="line;strokeWidth=1;html=1;rounded=0;shadow=0;labelBackgroundColor=none;fillColor=none;fontFamily=Verdana;fontSize=14;fontColor=#000000;align=center;comic=1;" parent="1" vertex="1">
          <mxGeometry x="20" y="140" width="1060" height="10" as="geometry" />
        </mxCell>
        <mxCell id="677b7b8949515195-10" value="" style="whiteSpace=wrap;html=1;rounded=0;shadow=0;labelBackgroundColor=none;strokeWidth=1;fillColor=none;fontFamily=Verdana;fontSize=12;align=center;comic=1;" parent="1" vertex="1">
          <mxGeometry x="30" y="160" width="1040" height="50" as="geometry" />
        </mxCell>
        <mxCell id="677b7b8949515195-11" value="Section 1" style="text;html=1;points=[];align=left;verticalAlign=top;spacingTop=-4;fontSize=14;fontFamily=Verdana" parent="1" vertex="1">
          <mxGeometry x="330" y="175" width="60" height="20" as="geometry" />
        </mxCell>
        <mxCell id="677b7b8949515195-12" value="Section 2" style="text;html=1;points=[];align=left;verticalAlign=top;spacingTop=-4;fontSize=14;fontFamily=Verdana" parent="1" vertex="1">
          <mxGeometry x="477" y="175" width="60" height="20" as="geometry" />
        </mxCell>
        <mxCell id="677b7b8949515195-13" value="Section 3" style="text;html=1;points=[];align=left;verticalAlign=top;spacingTop=-4;fontSize=14;fontFamily=Verdana" parent="1" vertex="1">
          <mxGeometry x="623" y="175" width="60" height="20" as="geometry" />
        </mxCell>
        <mxCell id="677b7b8949515195-14" value="Section 4" style="text;html=1;points=[];align=left;verticalAlign=top;spacingTop=-4;fontSize=14;fontFamily=Verdana" parent="1" vertex="1">
          <mxGeometry x="770" y="175" width="60" height="20" as="geometry" />
        </mxCell>
        <mxCell id="677b7b8949515195-15" value="&lt;div style=&quot;text-align: justify&quot;&gt;&lt;span&gt;Lorem ipsum dolor sit amet, consectetur adipisicing elit, sed do eiusmod tempor incididunt ut labore et dolore magna aliqua. Ut enim ad minim veniam, quis nostrud exercitation ullamco laboris nisi ut aliquip ex ea commodo consequat. Duis aute irure dolor in reprehenderit in voluptate velit esse cillum dolore eu fugiat nulla pariatur. Excepteur sint occaecat cupidatat non proident, sunt in culpa qui officia deserunt mollit anim id est laborum.&lt;/span&gt;&lt;/div&gt;&lt;div style=&quot;text-align: justify&quot;&gt;&lt;span&gt;Sed ut perspiciatis unde omnis iste natus error sit voluptatem accusantium doloremque laudantium, totam rem aperiam, eaque ipsa quae ab illo inventore veritatis et quasi architecto beatae vitae dicta sunt explicabo. Nemo enim ipsam voluptatem quia voluptas sit aspernatur aut odit aut fugit, sed quia consequuntur magni dolores eos qui ratione voluptatem sequi nesciunt.&amp;nbsp;&lt;/span&gt;&lt;/div&gt;" style="whiteSpace=wrap;html=1;rounded=0;shadow=0;labelBackgroundColor=none;strokeWidth=1;fillColor=none;fontFamily=Verdana;fontSize=12;align=center;verticalAlign=top;spacing=10;comic=1;" parent="1" vertex="1">
          <mxGeometry x="250" y="640" width="580" height="180" as="geometry" />
        </mxCell>
        <mxCell id="677b7b8949515195-16" value="" style="verticalLabelPosition=bottom;shadow=0;dashed=0;align=center;html=1;verticalAlign=top;strokeWidth=1;shape=mxgraph.mockup.graphics.simpleIcon;strokeColor=#999999;rounded=0;labelBackgroundColor=none;fontFamily=Verdana;fontSize=14;fontColor=#000000;comic=1;" parent="1" vertex="1">
          <mxGeometry x="250" y="230" width="580" height="400" as="geometry" />
        </mxCell>
        <mxCell id="677b7b8949515195-25" value="" style="whiteSpace=wrap;html=1;rounded=0;shadow=0;labelBackgroundColor=none;strokeWidth=1;fillColor=none;fontFamily=Verdana;fontSize=12;align=center;comic=1;" parent="1" vertex="1">
          <mxGeometry x="840" y="230" width="230" height="400" as="geometry" />
        </mxCell>
        <mxCell id="677b7b8949515195-26" value="" style="whiteSpace=wrap;html=1;rounded=0;shadow=0;labelBackgroundColor=none;strokeWidth=1;fillColor=none;fontFamily=Verdana;fontSize=12;align=center;comic=1;" parent="1" vertex="1">
          <mxGeometry x="840" y="640" width="230" height="180" as="geometry" />
        </mxCell>
        <mxCell id="677b7b8949515195-27" value="Section 1" style="text;html=1;points=[];align=left;verticalAlign=top;spacingTop=-4;fontSize=14;fontFamily=Verdana" parent="1" vertex="1">
          <mxGeometry x="40" y="250" width="170" height="20" as="geometry" />
        </mxCell>
        <mxCell id="677b7b8949515195-28" value="Section 2" style="text;html=1;points=[];align=left;verticalAlign=top;spacingTop=-4;fontSize=14;fontFamily=Verdana" parent="1" vertex="1">
          <mxGeometry x="40" y="286" width="170" height="20" as="geometry" />
        </mxCell>
        <mxCell id="677b7b8949515195-29" value="Section 3" style="text;html=1;points=[];align=left;verticalAlign=top;spacingTop=-4;fontSize=14;fontFamily=Verdana" parent="1" vertex="1">
          <mxGeometry x="40" y="321" width="170" height="20" as="geometry" />
        </mxCell>
        <mxCell id="677b7b8949515195-30" value="Section 4" style="text;html=1;points=[];align=left;verticalAlign=top;spacingTop=-4;fontSize=14;fontFamily=Verdana" parent="1" vertex="1">
          <mxGeometry x="40" y="357" width="170" height="20" as="geometry" />
        </mxCell>
        <mxCell id="677b7b8949515195-31" value="Section 7" style="text;html=1;points=[];align=left;verticalAlign=top;spacingTop=-4;fontSize=14;fontFamily=Verdana" parent="1" vertex="1">
          <mxGeometry x="40" y="464" width="170" height="20" as="geometry" />
        </mxCell>
        <mxCell id="677b7b8949515195-32" value="Section 8" style="text;html=1;points=[];align=left;verticalAlign=top;spacingTop=-4;fontSize=14;fontFamily=Verdana" parent="1" vertex="1">
          <mxGeometry x="40" y="500" width="170" height="20" as="geometry" />
        </mxCell>
        <mxCell id="677b7b8949515195-33" value="Section 9" style="text;html=1;points=[];align=left;verticalAlign=top;spacingTop=-4;fontSize=14;fontFamily=Verdana" parent="1" vertex="1">
          <mxGeometry x="40" y="536" width="170" height="20" as="geometry" />
        </mxCell>
        <mxCell id="677b7b8949515195-34" value="Section 10" style="text;html=1;points=[];align=left;verticalAlign=top;spacingTop=-4;fontSize=14;fontFamily=Verdana" parent="1" vertex="1">
          <mxGeometry x="40" y="571" width="170" height="20" as="geometry" />
        </mxCell>
        <mxCell id="677b7b8949515195-35" value="Section 11" style="text;html=1;points=[];align=left;verticalAlign=top;spacingTop=-4;fontSize=14;fontFamily=Verdana" parent="1" vertex="1">
          <mxGeometry x="40" y="607" width="170" height="20" as="geometry" />
        </mxCell>
        <mxCell id="677b7b8949515195-36" value="Section 12" style="text;html=1;points=[];align=left;verticalAlign=top;spacingTop=-4;fontSize=14;fontFamily=Verdana" parent="1" vertex="1">
          <mxGeometry x="40" y="643" width="170" height="20" as="geometry" />
        </mxCell>
        <mxCell id="677b7b8949515195-37" value="Section 13" style="text;html=1;points=[];align=left;verticalAlign=top;spacingTop=-4;fontSize=14;fontFamily=Verdana" parent="1" vertex="1">
          <mxGeometry x="40" y="679" width="170" height="20" as="geometry" />
        </mxCell>
        <mxCell id="677b7b8949515195-38" value="Section 14" style="text;html=1;points=[];align=left;verticalAlign=top;spacingTop=-4;fontSize=14;fontFamily=Verdana" parent="1" vertex="1">
          <mxGeometry x="40" y="714" width="170" height="20" as="geometry" />
        </mxCell>
        <mxCell id="677b7b8949515195-39" value="Section 5" style="text;html=1;points=[];align=left;verticalAlign=top;spacingTop=-4;fontSize=14;fontFamily=Verdana" parent="1" vertex="1">
          <mxGeometry x="40" y="393" width="170" height="20" as="geometry" />
        </mxCell>
        <mxCell id="677b7b8949515195-40" value="Section 6" style="text;html=1;points=[];align=left;verticalAlign=top;spacingTop=-4;fontSize=14;fontFamily=Verdana" parent="1" vertex="1">
          <mxGeometry x="40" y="429" width="170" height="20" as="geometry" />
        </mxCell>
        <mxCell id="677b7b8949515195-41" value="Section 15" style="text;html=1;points=[];align=left;verticalAlign=top;spacingTop=-4;fontSize=14;fontFamily=Verdana" parent="1" vertex="1">
          <mxGeometry x="40" y="750" width="170" height="20" as="geometry" />
        </mxCell>
        <mxCell id="677b7b8949515195-42" value="External Links" style="text;html=1;points=[];align=left;verticalAlign=top;spacingTop=-4;fontSize=14;fontFamily=Verdana" parent="1" vertex="1">
          <mxGeometry x="860" y="653" width="170" height="20" as="geometry" />
        </mxCell>
        <mxCell id="677b7b8949515195-44" value="Feature 1" style="text;html=1;points=[];align=left;verticalAlign=top;spacingTop=-4;fontSize=14;fontFamily=Verdana" parent="1" vertex="1">
          <mxGeometry x="860" y="250" width="170" height="20" as="geometry" />
        </mxCell>
        <mxCell id="677b7b8949515195-45" value="Feature 2" style="text;html=1;points=[];align=left;verticalAlign=top;spacingTop=-4;fontSize=14;fontFamily=Verdana" parent="1" vertex="1">
          <mxGeometry x="860" y="285" width="170" height="20" as="geometry" />
        </mxCell>
        <mxCell id="677b7b8949515195-46" value="Feature 3" style="text;html=1;points=[];align=left;verticalAlign=top;spacingTop=-4;fontSize=14;fontFamily=Verdana" parent="1" vertex="1">
          <mxGeometry x="860" y="320" width="170" height="20" as="geometry" />
        </mxCell>
        <mxCell id="677b7b8949515195-47" value="Feature 4" style="text;html=1;points=[];align=left;verticalAlign=top;spacingTop=-4;fontSize=14;fontFamily=Verdana" parent="1" vertex="1">
          <mxGeometry x="860" y="355" width="170" height="20" as="geometry" />
        </mxCell>
        <mxCell id="677b7b8949515195-48" value="Feature 5" style="text;html=1;points=[];align=left;verticalAlign=top;spacingTop=-4;fontSize=14;fontFamily=Verdana" parent="1" vertex="1">
          <mxGeometry x="860" y="390" width="170" height="20" as="geometry" />
        </mxCell>
        <mxCell id="677b7b8949515195-49" value="Feature 6" style="text;html=1;points=[];align=left;verticalAlign=top;spacingTop=-4;fontSize=14;fontFamily=Verdana" parent="1" vertex="1">
          <mxGeometry x="860" y="425" width="170" height="20" as="geometry" />
        </mxCell>
        <mxCell id="qOiqM3wPHvPEpuKDiq2z-2" value="" style="whiteSpace=wrap;html=1;rounded=0;shadow=0;labelBackgroundColor=none;strokeColor=#0e8088;strokeWidth=1;fillColor=#b0e3e6;fontFamily=Verdana;fontSize=12;align=center;comic=1;" vertex="1" parent="1">
          <mxGeometry x="30" y="940" width="1060" height="780" as="geometry" />
        </mxCell>
        <mxCell id="qOiqM3wPHvPEpuKDiq2z-3" value="" style="rounded=1;whiteSpace=wrap;html=1;" vertex="1" parent="1">
          <mxGeometry x="440" y="1520" width="280" height="80" as="geometry" />
        </mxCell>
        <mxCell id="qOiqM3wPHvPEpuKDiq2z-4" value="&lt;font style=&quot;font-size: 20px;&quot; face=&quot;Comic Sans MS&quot;&gt;Enter Game!&lt;/font&gt;" style="text;html=1;align=center;verticalAlign=middle;whiteSpace=wrap;rounded=0;" vertex="1" parent="1">
          <mxGeometry x="500" y="1545" width="170" height="30" as="geometry" />
        </mxCell>
        <mxCell id="qOiqM3wPHvPEpuKDiq2z-5" value="&lt;font size=&quot;1&quot; color=&quot;#ffffff&quot; data-font-src=&quot;https://fonts.googleapis.com/css?family=Protest+Revolution&quot; face=&quot;Protest Revolution&quot; style=&quot;&quot;&gt;&lt;b style=&quot;font-size: 120px;&quot;&gt;Quizlier&lt;/b&gt;&lt;/font&gt;" style="text;html=1;align=center;verticalAlign=middle;whiteSpace=wrap;rounded=0;" vertex="1" parent="1">
          <mxGeometry x="30" y="990" width="1060" height="380" as="geometry" />
        </mxCell>
        <mxCell id="qOiqM3wPHvPEpuKDiq2z-6" value="" style="whiteSpace=wrap;html=1;rounded=0;shadow=0;labelBackgroundColor=none;strokeColor=#0e8088;strokeWidth=1;fillColor=#b0e3e6;fontFamily=Verdana;fontSize=12;align=center;comic=1;" vertex="1" parent="1">
          <mxGeometry x="30" y="1800" width="1060" height="780" as="geometry" />
        </mxCell>
        <mxCell id="qOiqM3wPHvPEpuKDiq2z-7" value="&lt;font data-font-src=&quot;https://fonts.googleapis.com/css?family=Protest+Revolution&quot; face=&quot;Protest Revolution&quot;&gt;Quizlier&lt;/font&gt;" style="whiteSpace=wrap;html=1;rounded=0;shadow=0;labelBackgroundColor=none;strokeWidth=1;fontFamily=Verdana;fontSize=28;align=center;comic=1;" vertex="1" parent="1">
          <mxGeometry x="80" y="1830" width="190" height="50" as="geometry" />
        </mxCell>
        <mxCell id="qOiqM3wPHvPEpuKDiq2z-8" value="&lt;font style=&quot;font-size: 20px;&quot;&gt;Quit game&lt;/font&gt;" style="text;html=1;align=center;verticalAlign=middle;whiteSpace=wrap;rounded=0;" vertex="1" parent="1">
          <mxGeometry x="810" y="1830" width="130" height="40" as="geometry" />
        </mxCell>
        <mxCell id="qOiqM3wPHvPEpuKDiq2z-9" value="" style="ellipse;whiteSpace=wrap;html=1;aspect=fixed;" vertex="1" parent="1">
          <mxGeometry x="980" y="1815" width="65" height="65" as="geometry" />
        </mxCell>
        <mxCell id="qOiqM3wPHvPEpuKDiq2z-10" value="&lt;font style=&quot;font-size: 20px;&quot; face=&quot;Comic Sans MS&quot;&gt;Select a category below&lt;/font&gt;" style="text;html=1;align=center;verticalAlign=middle;whiteSpace=wrap;rounded=0;" vertex="1" parent="1">
          <mxGeometry x="225" y="1940" width="670" height="30" as="geometry" />
        </mxCell>
        <mxCell id="qOiqM3wPHvPEpuKDiq2z-14" value="" style="shape=waypoint;sketch=0;fillStyle=solid;size=6;pointerEvents=1;points=[];fillColor=none;resizable=0;rotatable=0;perimeter=centerPerimeter;snapToPoint=1;" vertex="1" parent="1">
          <mxGeometry x="130" y="2010" width="20" height="20" as="geometry" />
        </mxCell>
        <mxCell id="qOiqM3wPHvPEpuKDiq2z-16" value="" style="ellipse;whiteSpace=wrap;html=1;aspect=fixed;fillColor=#000000;" vertex="1" parent="1">
          <mxGeometry x="240" y="2000" width="30" height="30" as="geometry" />
        </mxCell>
        <mxCell id="qOiqM3wPHvPEpuKDiq2z-17" value="" style="ellipse;whiteSpace=wrap;html=1;aspect=fixed;fillColor=#000000;" vertex="1" parent="1">
          <mxGeometry x="720" y="2180" width="30" height="30" as="geometry" />
        </mxCell>
        <mxCell id="qOiqM3wPHvPEpuKDiq2z-18" value="" style="ellipse;whiteSpace=wrap;html=1;aspect=fixed;fillColor=#000000;" vertex="1" parent="1">
          <mxGeometry x="720" y="2000" width="30" height="30" as="geometry" />
        </mxCell>
        <mxCell id="qOiqM3wPHvPEpuKDiq2z-19" value="" style="ellipse;whiteSpace=wrap;html=1;aspect=fixed;fillColor=#000000;" vertex="1" parent="1">
          <mxGeometry x="240" y="2180" width="30" height="30" as="geometry" />
        </mxCell>
        <mxCell id="qOiqM3wPHvPEpuKDiq2z-20" value="" style="ellipse;whiteSpace=wrap;html=1;aspect=fixed;fillColor=#000000;" vertex="1" parent="1">
          <mxGeometry x="240" y="2360" width="30" height="30" as="geometry" />
        </mxCell>
        <mxCell id="qOiqM3wPHvPEpuKDiq2z-26" value="" style="ellipse;whiteSpace=wrap;html=1;aspect=fixed;fillColor=#000000;" vertex="1" parent="1">
          <mxGeometry x="720" y="2360" width="30" height="30" as="geometry" />
        </mxCell>
        <mxCell id="qOiqM3wPHvPEpuKDiq2z-31" value="&lt;font face=&quot;Comic Sans MS&quot; style=&quot;font-size: 20px;&quot;&gt;Category One&lt;/font&gt;" style="text;html=1;align=left;verticalAlign=middle;whiteSpace=wrap;rounded=0;" vertex="1" parent="1">
          <mxGeometry x="290" y="2000" width="130" height="30" as="geometry" />
        </mxCell>
        <mxCell id="qOiqM3wPHvPEpuKDiq2z-32" value="&lt;font face=&quot;Comic Sans MS&quot; style=&quot;font-size: 20px;&quot;&gt;Category Two&lt;/font&gt;" style="text;html=1;align=left;verticalAlign=middle;whiteSpace=wrap;rounded=0;" vertex="1" parent="1">
          <mxGeometry x="290" y="2180" width="130" height="30" as="geometry" />
        </mxCell>
        <mxCell id="qOiqM3wPHvPEpuKDiq2z-33" value="&lt;font face=&quot;Comic Sans MS&quot; style=&quot;font-size: 20px;&quot;&gt;Category Three&lt;/font&gt;" style="text;html=1;align=left;verticalAlign=middle;whiteSpace=wrap;rounded=0;" vertex="1" parent="1">
          <mxGeometry x="290" y="2360" width="150" height="30" as="geometry" />
        </mxCell>
        <mxCell id="qOiqM3wPHvPEpuKDiq2z-34" value="&lt;font face=&quot;Comic Sans MS&quot; style=&quot;font-size: 20px;&quot;&gt;Category Four&lt;/font&gt;" style="text;html=1;align=left;verticalAlign=middle;whiteSpace=wrap;rounded=0;" vertex="1" parent="1">
          <mxGeometry x="770" y="2000" width="150" height="30" as="geometry" />
        </mxCell>
        <mxCell id="qOiqM3wPHvPEpuKDiq2z-35" value="&lt;font face=&quot;Comic Sans MS&quot; style=&quot;font-size: 20px;&quot;&gt;Category Five&lt;/font&gt;" style="text;html=1;align=left;verticalAlign=middle;whiteSpace=wrap;rounded=0;" vertex="1" parent="1">
          <mxGeometry x="770" y="2180" width="150" height="30" as="geometry" />
        </mxCell>
        <mxCell id="qOiqM3wPHvPEpuKDiq2z-36" value="&lt;font face=&quot;Comic Sans MS&quot; style=&quot;font-size: 20px;&quot;&gt;Category Six&lt;/font&gt;" style="text;html=1;align=left;verticalAlign=middle;whiteSpace=wrap;rounded=0;" vertex="1" parent="1">
          <mxGeometry x="780" y="2360" width="130" height="30" as="geometry" />
        </mxCell>
        <mxCell id="qOiqM3wPHvPEpuKDiq2z-37" value="" style="whiteSpace=wrap;html=1;rounded=0;shadow=0;labelBackgroundColor=none;strokeColor=#0e8088;strokeWidth=1;fillColor=#b0e3e6;fontFamily=Verdana;fontSize=12;align=center;comic=1;" vertex="1" parent="1">
          <mxGeometry x="30" y="2630" width="1060" height="780" as="geometry" />
        </mxCell>
        <mxCell id="qOiqM3wPHvPEpuKDiq2z-38" value="&lt;font data-font-src=&quot;https://fonts.googleapis.com/css?family=Protest+Revolution&quot; face=&quot;Protest Revolution&quot;&gt;Quizlier&lt;/font&gt;" style="whiteSpace=wrap;html=1;rounded=0;shadow=0;labelBackgroundColor=none;strokeWidth=1;fontFamily=Verdana;fontSize=28;align=center;comic=1;" vertex="1" parent="1">
          <mxGeometry x="80" y="2670" width="190" height="50" as="geometry" />
        </mxCell>
        <mxCell id="qOiqM3wPHvPEpuKDiq2z-39" value="&lt;font style=&quot;font-size: 20px;&quot;&gt;Quit game&lt;/font&gt;" style="text;html=1;align=center;verticalAlign=middle;whiteSpace=wrap;rounded=0;" vertex="1" parent="1">
          <mxGeometry x="820" y="2670" width="130" height="40" as="geometry" />
        </mxCell>
        <mxCell id="qOiqM3wPHvPEpuKDiq2z-40" value="&lt;font style=&quot;font-size: 20px;&quot;&gt;Lorem ipsum dolor sit amet, consectetur adipiscing elit&lt;/font&gt;" style="text;html=1;align=center;verticalAlign=middle;whiteSpace=wrap;rounded=0;" vertex="1" parent="1">
          <mxGeometry x="140" y="2830" width="810" height="60" as="geometry" />
        </mxCell>
        <mxCell id="qOiqM3wPHvPEpuKDiq2z-41" value="" style="ellipse;whiteSpace=wrap;html=1;aspect=fixed;fillColor=#000000;" vertex="1" parent="1">
          <mxGeometry x="190" y="2945" width="30" height="30" as="geometry" />
        </mxCell>
        <mxCell id="qOiqM3wPHvPEpuKDiq2z-42" value="" style="ellipse;whiteSpace=wrap;html=1;aspect=fixed;fillColor=#000000;" vertex="1" parent="1">
          <mxGeometry x="190" y="3150" width="30" height="30" as="geometry" />
        </mxCell>
        <mxCell id="qOiqM3wPHvPEpuKDiq2z-43" value="" style="ellipse;whiteSpace=wrap;html=1;aspect=fixed;fillColor=#000000;" vertex="1" parent="1">
          <mxGeometry x="720" y="3150" width="30" height="30" as="geometry" />
        </mxCell>
        <mxCell id="qOiqM3wPHvPEpuKDiq2z-44" value="" style="ellipse;whiteSpace=wrap;html=1;aspect=fixed;fillColor=#000000;" vertex="1" parent="1">
          <mxGeometry x="720" y="2945" width="30" height="30" as="geometry" />
        </mxCell>
        <mxCell id="qOiqM3wPHvPEpuKDiq2z-49" value="&lt;font style=&quot;font-size: 20px;&quot;&gt;Next&lt;/font&gt;" style="rounded=1;whiteSpace=wrap;html=1;" vertex="1" parent="1">
          <mxGeometry x="790" y="3290" width="200" height="60" as="geometry" />
        </mxCell>
        <mxCell id="qOiqM3wPHvPEpuKDiq2z-51" value="" style="whiteSpace=wrap;html=1;rounded=0;shadow=0;labelBackgroundColor=none;strokeColor=#0e8088;strokeWidth=1;fillColor=#b0e3e6;fontFamily=Verdana;fontSize=12;align=center;comic=1;" vertex="1" parent="1">
          <mxGeometry x="30" y="3500" width="1060" height="780" as="geometry" />
        </mxCell>
        <mxCell id="qOiqM3wPHvPEpuKDiq2z-53" value="&lt;font style=&quot;font-size: 20px;&quot;&gt;Congratulations! You finished the game!&amp;nbsp;&lt;/font&gt;" style="text;html=1;align=center;verticalAlign=middle;whiteSpace=wrap;rounded=0;" vertex="1" parent="1">
          <mxGeometry x="230" y="3580" width="690" height="30" as="geometry" />
        </mxCell>
        <mxCell id="qOiqM3wPHvPEpuKDiq2z-54" value="&lt;font style=&quot;font-size: 20px;&quot;&gt;Score&lt;/font&gt;:" style="text;html=1;align=left;verticalAlign=middle;whiteSpace=wrap;rounded=0;" vertex="1" parent="1">
          <mxGeometry x="165" y="3690" width="60" height="30" as="geometry" />
        </mxCell>
        <mxCell id="qOiqM3wPHvPEpuKDiq2z-55" value="&lt;font style=&quot;font-size: 20px;&quot;&gt;Highscore:&lt;/font&gt;" style="text;html=1;align=left;verticalAlign=middle;whiteSpace=wrap;rounded=0;" vertex="1" parent="1">
          <mxGeometry x="160" y="3770" width="90" height="30" as="geometry" />
        </mxCell>
        <mxCell id="qOiqM3wPHvPEpuKDiq2z-56" value="&lt;font style=&quot;font-size: 20px;&quot;&gt;New Game&lt;/font&gt;" style="rounded=1;whiteSpace=wrap;html=1;" vertex="1" parent="1">
          <mxGeometry x="140" y="4060" width="120" height="60" as="geometry" />
        </mxCell>
        <mxCell id="qOiqM3wPHvPEpuKDiq2z-57" value="&lt;font style=&quot;font-size: 20px;&quot;&gt;Quit Game&lt;/font&gt;" style="rounded=1;whiteSpace=wrap;html=1;" vertex="1" parent="1">
          <mxGeometry x="850" y="4060" width="120" height="60" as="geometry" />
        </mxCell>
        <mxCell id="qOiqM3wPHvPEpuKDiq2z-58" value="" style="whiteSpace=wrap;html=1;rounded=0;shadow=0;labelBackgroundColor=none;strokeColor=#0e8088;strokeWidth=1;fillColor=#b0e3e6;fontFamily=Verdana;fontSize=12;align=center;comic=1;" vertex="1" parent="1">
          <mxGeometry x="30" y="4350" width="1060" height="780" as="geometry" />
        </mxCell>
      </root>
    </mxGraphModel>
  </diagram>
</mxfile>
